<?xml version="1.0" encoding="UTF-8" standalone="no"?>
<svg width="1478px" height="677px" viewBox="0 0 1478 677" version="1.1" xmlns="http://www.w3.org/2000/svg" xmlns:xlink="http://www.w3.org/1999/xlink" xmlns:sketch="http://www.bohemiancoding.com/sketch/ns">
    <!-- Generator: Sketch 3.2.2 (9983) - http://www.bohemiancoding.com/sketch -->
    <title>at*</title>
    <desc>Created with Sketch.</desc>
    <defs></defs>
    <g id="Page-1" stroke="none" stroke-width="1" fill="none" fill-rule="evenodd" sketch:type="MSPage">
        <path d="M211.928,568.652 C182.416,568.652 164.188,552.16 164.188,524.384 C164.188,508.76 170.264,489.664 188.492,480.984 C204.116,473.172 220.608,470.568 288.312,468.832 C288.312,520.912 262.272,568.652 211.928,568.652 L211.928,568.652 Z M17.496,343.84 L174.604,343.84 C175.472,309.988 199.776,293.496 232.76,293.496 C270.084,293.496 286.576,317.8 286.576,354.256 L286.576,372.484 C162.452,376.824 124.26,382.032 72.18,407.204 C27.044,428.904 0.136,473.172 0.136,528.724 C0.136,648.508 84.332,676.284 165.056,676.284 C231.024,676.284 278.764,644.168 298.728,614.656 L300.464,614.656 C311.748,653.716 332.58,665 382.056,665 L486.216,665 L486.216,544.348 L465.384,544.348 C448.024,544.348 441.08,535.668 441.08,520.044 L441.08,364.672 C441.08,235.34 373.376,185.864 232.76,185.864 C104.296,185.864 17.496,252.7 17.496,343.84 L17.496,343.84 Z M643.323998,505.288 C643.323998,626.808 724.915998,674.548 828.207998,674.548 C897.647998,674.548 941.047998,665.868 967.955998,658.924 L967.955998,534.8 C930.631998,542.612 908.931998,545.216 885.495998,545.216 C820.395998,545.216 806.507998,525.252 806.507998,476.644 L806.507998,321.272 L966.219998,321.272 L966.219998,196.28 L803.903998,196.28 L803.903998,49.588 L655.475998,49.588 L655.475998,126.84 C655.475998,184.128 641.587998,200.62 586.903998,200.62 L508.783998,200.62 L508.783998,321.272 L643.323998,321.272 L643.323998,505.288 Z M1257,303.044 L1342.064,429.772 L1439.28,354.256 L1330.78,241.416 L1332.516,237.944 L1477.472,203.224 L1441.016,89.516 L1303.872,154.616 L1302.136,152.012 L1317.76,0.98 L1195.372,0.98 L1208.392,150.276 L1206.656,152.012 L1072.984,89.516 L1036.528,204.96 L1179.748,238.812 L1180.616,243.152 L1071.248,354.256 L1168.464,429.772 L1252.66,303.044 L1257,303.044 Z" id="at*-outlines" fill="#000000" sketch:type="MSShapeGroup"></path>
    </g>
</svg>