<?xml version="1.0" encoding="UTF-8" standalone="no"?>
<svg width="1580px" height="1580px" viewBox="0 0 1580 1580" version="1.1" xmlns="http://www.w3.org/2000/svg" xmlns:xlink="http://www.w3.org/1999/xlink" xmlns:sketch="http://www.bohemiancoding.com/sketch/ns">
    <!-- Generator: Sketch 3.4.2 (15855) - http://www.bohemiancoding.com/sketch -->
    <title>Square → SVG</title>
    <desc>Created with Sketch.</desc>
    <defs></defs>
    <g id="Page-1" stroke="none" stroke-width="1" fill="none" fill-rule="evenodd" sketch:type="MSPage">
        <path d="M255.928,996.652 C226.416,996.652 208.188,980.16 208.188,952.384 C208.188,936.76 214.264,917.664 232.492,908.984 C248.116,901.172 264.608,898.568 332.312,896.832 C332.312,948.912 306.272,996.652 255.928,996.652 L255.928,996.652 Z M61.496,771.84 L218.604,771.84 C219.472,737.988 243.776,721.496 276.76,721.496 C314.084,721.496 330.576,745.8 330.576,782.256 L330.576,800.484 C206.452,804.824 168.26,810.032 116.18,835.204 C71.044,856.904 44.136,901.172 44.136,956.724 C44.136,1076.508 128.332,1104.284 209.056,1104.284 C275.024,1104.284 322.764,1072.168 342.728,1042.656 L344.464,1042.656 C355.748,1081.716 376.58,1093 426.056,1093 L530.216,1093 L530.216,972.348 L509.384,972.348 C492.024,972.348 485.08,963.668 485.08,948.044 L485.08,792.672 C485.08,663.34 417.376,613.864 276.76,613.864 C148.296,613.864 61.496,680.7 61.496,771.84 L61.496,771.84 Z M687.323998,933.288 C687.323998,1054.808 768.915998,1102.548 872.207998,1102.548 C941.647998,1102.548 985.047998,1093.868 1011.956,1086.924 L1011.956,962.8 C974.631998,970.612 952.931998,973.216 929.495998,973.216 C864.395998,973.216 850.507998,953.252 850.507998,904.644 L850.507998,749.272 L1010.22,749.272 L1010.22,624.28 L847.903998,624.28 L847.903998,477.588 L699.475998,477.588 L699.475998,554.84 C699.475998,612.128 685.587998,628.62 630.903998,628.62 L552.783998,628.62 L552.783998,749.272 L687.323998,749.272 L687.323998,933.288 Z M1301,731.044 L1386.064,857.772 L1483.28,782.256 L1374.78,669.416 L1376.516,665.944 L1521.472,631.224 L1485.016,517.516 L1347.872,582.616 L1346.136,580.012 L1361.76,428.98 L1239.372,428.98 L1252.392,578.276 L1250.656,580.012 L1116.984,517.516 L1080.528,632.96 L1223.748,666.812 L1224.616,671.152 L1115.248,782.256 L1212.464,857.772 L1296.66,731.044 L1301,731.044 Z" id="at*-outlines" fill="#000000" sketch:type="MSShapeGroup"></path>
        <rect id="Black-bg" fill="#000000" sketch:type="MSShapeGroup" x="-2.27373675e-13" y="0" width="1580" height="1580"></rect>
        <path d="M255.928,996.652 C226.416,996.652 208.188,980.16 208.188,952.384 C208.188,936.76 214.264,917.664 232.492,908.984 C248.116,901.172 264.608,898.568 332.312,896.832 C332.312,948.912 306.272,996.652 255.928,996.652 L255.928,996.652 Z M61.496,771.84 L218.604,771.84 C219.472,737.988 243.776,721.496 276.76,721.496 C314.084,721.496 330.576,745.8 330.576,782.256 L330.576,800.484 C206.452,804.824 168.26,810.032 116.18,835.204 C71.044,856.904 44.136,901.172 44.136,956.724 C44.136,1076.508 128.332,1104.284 209.056,1104.284 C275.024,1104.284 322.764,1072.168 342.728,1042.656 L344.464,1042.656 C355.748,1081.716 376.58,1093 426.056,1093 L530.216,1093 L530.216,972.348 L509.384,972.348 C492.024,972.348 485.08,963.668 485.08,948.044 L485.08,792.672 C485.08,663.34 417.376,613.864 276.76,613.864 C148.296,613.864 61.496,680.7 61.496,771.84 L61.496,771.84 Z M687.323998,933.288 C687.323998,1054.808 768.915998,1102.548 872.207998,1102.548 C941.647998,1102.548 985.047998,1093.868 1011.956,1086.924 L1011.956,962.8 C974.631998,970.612 952.931998,973.216 929.495998,973.216 C864.395998,973.216 850.507998,953.252 850.507998,904.644 L850.507998,749.272 L1010.22,749.272 L1010.22,624.28 L847.903998,624.28 L847.903998,477.588 L699.475998,477.588 L699.475998,554.84 C699.475998,612.128 685.587998,628.62 630.903998,628.62 L552.783998,628.62 L552.783998,749.272 L687.323998,749.272 L687.323998,933.288 Z M1301,731.044 L1386.064,857.772 L1483.28,782.256 L1374.78,669.416 L1376.516,665.944 L1521.472,631.224 L1485.016,517.516 L1347.872,582.616 L1346.136,580.012 L1361.76,428.98 L1239.372,428.98 L1252.392,578.276 L1250.656,580.012 L1116.984,517.516 L1080.528,632.96 L1223.748,666.812 L1224.616,671.152 L1115.248,782.256 L1212.464,857.772 L1296.66,731.044 L1301,731.044 Z" id="at*-outlines-inverted" fill="#FFFFFF" sketch:type="MSShapeGroup"></path>
    </g>
</svg>